<svg width="204" height="184" fill="none" xmlns="http://www.w3.org/2000/svg"><path fill="#F5F5F5" d="M94.049 46l38.962 24.247-22.184 35.647-38.962-24.247z"/><rect x="40.865" y="41" width="13" height="3" rx="1.5" fill="#C3CCD7"/><rect x="50.865" y="48" width="10" height="3" rx="1.5" fill="#C3CCD7"/><rect width="14" height="3" rx="1.5" transform="matrix(-1 0 0 1 165.865 48)" fill="#C3CCD7"/><rect x="40.865" y="69" width="13" height="3" rx="1.5" fill="#C3CCD7"/><rect width="13" height="3" rx="1.5" transform="matrix(-1 0 0 1 171.865 69)" fill="#C3CCD7"/><rect x="50.865" y="55" width="10" height="3" rx="1.5" fill="#C3CCD7"/><rect x="50.865" y="62" width="10" height="3" rx="1.5" fill="#C3CCD7"/><rect width="30" height="3" rx="1.5" transform="matrix(-1 0 0 1 165.865 55)" fill="#C3CCD7"/><rect width="23" height="3" rx="1.5" transform="matrix(-1 0 0 1 165.865 62)" fill="#C3CCD7"/><path d="M188.491 157.213c-1.335 1.122-3.491 3.974-1.431 6.399 2.575 3.031 19.172 6.399 15.452 13.135-3.72 6.735-43.208 6.062-81.837 6.062-38.63 0-112.742 2.694-119.037-6.736-6.295-9.43 7.44-12.461 9.443-16.166.9-1.665-.143-2.415-1.67-2.694H5.644c1.087-.148 2.573-.218 3.765 0h179.081z" fill="#F1F2F8"/><path d="M67.6 173.896c-7.71-1.622-9.025-5.869-2.775-9.118 5.602-2.913 71.317-5.668 72.995 3.558 1.939 10.654-59.644 7.784-70.22 5.56z" fill="#E6E8F3"/><path fill="#EFA500" d="M93.865 138h13v19h-13z"/><path d="M85.865 160.909a4 4 0 014-4h22a4 4 0 014 4v6.909h-30v-6.909z" fill="#FDC412"/><path fill-rule="evenodd" clip-rule="evenodd" d="M115.793 88h34.626c0 7.576-.292 15.441-4.852 22.234-4.498 6.701-12.723 11.478-25.986 11.478h-3.788V88zm7.576 7.576v18.4c8.788-.779 13.43-4.273 15.908-7.964 2.208-3.289 2.984-7.157 2.974-10.436h-18.882zM85.49 88H50.866c0 7.576.292 15.441 4.852 22.234 4.498 6.701 12.724 11.478 25.986 11.478h3.788V88zm-7.575 7.576v18.4c-8.787-.779-13.43-4.273-15.908-7.964-2.208-3.289-2.983-7.157-2.973-10.436h18.881z" fill="#FDC412"/><path d="M100.642 141.03c16.736 0 30.303-13.475 30.303-30.098V88H70.339v22.932c0 16.623 13.567 30.098 30.303 30.098z" fill="#FDC412"/><path fill="#EFA500" d="M70.339 88h60.606v7.576H70.339z"/><path d="M111.865 47.178l5.686 1.639a1.153 1.153 0 001.428-.79l1.32-4.576a1.153 1.153 0 011.428-.79l4.577 1.32a1.153 1.153 0 001.428-.789l1.32-4.577a1.153 1.153 0 011.428-.789l4.577 1.32a1.153 1.153 0 001.428-.79l1.32-4.576a1.154 1.154 0 011.428-.79l4.577 1.32a1.155 1.155 0 001.429-.789l1.319-4.577a1.154 1.154 0 011.428-.789l4.577 1.32a1.154 1.154 0 001.429-.79L155.631 23" stroke="#FDC412" stroke-width="2" stroke-linecap="round" stroke-linejoin="round"/><path d="M63.32 1.612l-.083 5.916c-.009.638.5 1.161 1.138 1.17l4.763.067a1.154 1.154 0 011.137 1.17l-.066 4.762c-.009.638.5 1.161 1.138 1.17l4.763.067a1.154 1.154 0 011.137 1.17l-.066 4.762c-.009.638.5 1.161 1.138 1.17l4.763.067a1.154 1.154 0 011.137 1.17l-.066 4.762c-.01.638.5 1.161 1.137 1.17l4.763.067a1.154 1.154 0 011.138 1.17l-.067 4.762c-.008.638.5 1.161 1.138 1.17l5.917.083" stroke="#7FD4E3" stroke-width="2" stroke-linecap="round" stroke-linejoin="round"/><path d="M79.865 64l1.89 5.11 5.11 1.89-5.11 1.89-1.89 5.11-1.89-5.11-5.11-1.89 5.11-1.89 1.89-5.11z" stroke="#43C59E" stroke-width="2" stroke-linecap="square" stroke-linejoin="round"/><path d="M43.865 7l1.89 5.11 5.11 1.89-5.11 1.89-1.89 5.11-1.89-5.11-5.11-1.89 5.11-1.89L43.865 7z" stroke="#FDC412" stroke-width="2" stroke-linecap="square" stroke-linejoin="round"/><path d="M139.865 14l1.081 2.92 2.919 1.08-2.919 1.08-1.081 2.92-1.08-2.92-2.92-1.08 2.92-1.08 1.08-2.92z" stroke="#38447A" stroke-width="2" stroke-linecap="square" stroke-linejoin="round"/></svg>