<svg xmlns="http://www.w3.org/2000/svg" width="512" height="512" viewBox="0 0 512 512"><defs/><path fill="#7acaa6" d="M3.8 80.7a80.7 80.7 0 11133.7 60.7 3.5 3.5 0 00.5 5.7l15.2 9c2.4 1.4 1.4 5.2-1.4 5.2H82.9A80.7 80.7 0 014 80.7z"/><path fill="#57be92" d="M153.2 156l-15.2-9c-2-1.1-2.3-4-.6-5.5 17.3-15 28-37.4 27.7-62.1a81 81 0 00-96-78 81 81 0 0148.6 128.7 17.4 17.4 0 004.7 25.8l.3.2c2.5 1.4 1.5 5.1-1.3 5.2h30.4c2.8 0 3.8-3.8 1.4-5.2z"/><path fill="#c59191" d="M396.8 292.8h-183a54 54 0 01-41.5-88.5l1.6-2a86.3 86.3 0 0020-55V112a112 112 0 01223.9 0v36.4c0 20.4 7.2 40 20.3 55.6a54 54 0 01-41.3 88.8z"/><path fill="#fff" d="M493 383.4v121H117.7v-120A67.5 67.5 0 01159 322l60.6-26.4L240 287a42.4 42.4 0 0025.5-38.9v-7.8h79.7v7.4c0 17 10 32.3 25.7 39l81.9 35a67.5 67.5 0 0140.2 61.8z"/><path fill="#ffcebf" d="M219.6 324.6A290.5 290.5 0 00391 323l9.8-23.5-30-13a42.4 42.4 0 01-25.7-38.9v-7.4h-79.7v7.8c0 16.9-10 32.1-25.5 38.9l-24.4 10.6z"/><g fill="#8795de"><path d="M452.8 321.7l-61.7-26.5v209.2H493v-121c0-26.7-15.8-50.9-40.2-61.7zM219.6 295.8v208.6h-102v-120A67.5 67.5 0 01159 322z"/></g><path fill="#ffb09e" d="M333 284a67 67 0 0025.8-5.3 42.4 42.4 0 01-13.6-31.1v-7.4h-79.7v7.8c0 6.1-1.3 12-3.7 17.3A67 67 0 00308 284H333z"/><path fill="#ffcebf" d="M385 120.3v66a67.2 67.2 0 01-67.3 67.2H293a67.2 67.2 0 01-67.2-67.3v-66a43.7 43.7 0 0143.7-43.7h71.8a43.7 43.7 0 0143.8 43.8z"/><path fill="#7a6d79" d="M385 154.6l-.1.3a67.8 67.8 0 01-48.6 48 7.6 7.6 0 103.9 14.7 83 83 0 0044.7-29.6v-33.4z"/><path fill="#685e68" d="M328 224H310a14.7 14.7 0 010-29.5H328a14.7 14.7 0 010 29.4z"/><path fill="#b98080" d="M321.2 59.1c1.7-21.5 22.3-35.8 42-43.2a112 112 0 0154.6 96v7.8a93 93 0 01-31.9 1c-40.7-5.5-66.8-35.6-64.7-61.6z"/><path fill="#c59191" d="M305.8 0c25.3 0 48.6 8.4 67.4 22.5a198.2 198.2 0 01-146.5 98.1h-32.9V112a112 112 0 01112-112z"/><path fill="#efedef" d="M431 504.4H187.3L174 377.6c-1-9 6-16.8 15.1-16.8h240.3c9 0 16 7.8 15.1 16.8z"/><path fill="#e5e1e5" d="M429.3 360.8h-30.5c9 0 16.1 7.8 15.2 16.8l-13.5 126.8H431l13.4-126.8c1-9-6-16.8-15.1-16.8z"/><g><path fill="#c9bfc8" d="M504.5 512H7.5a7.5 7.5 0 110-15h497a7.5 7.5 0 110 15z"/></g><circle cx="309.1" cy="432.6" r="21.3" fill="#c9bfc8"/><g fill="#fff"><circle cx="54" cy="80.7" r="7.6"/><circle cx="84.5" cy="80.7" r="7.6"/><circle cx="114.9" cy="80.7" r="7.6"/></g></svg>