<svg width="189" height="158" fill="none" xmlns="http://www.w3.org/2000/svg"><path d="M173.085 133.38c-1.954-3.053-11.323-6.862-39.498-7.204-28.174-.343-68.123-2.738-86.625-2.054-18.503.685-37.2 1.966-40.793 4.593-5.885 4.304-8.886 6.911-2.915 18.785 5.971 11.874 70.225 10.051 106.865 10.051s74.094.849 77.622-7.633c3.529-8.481-12.213-12.721-14.656-16.538z" fill="#F1F2F8"/><path d="M56.733 143.231c-9.74-1.596-11.4-5.779-3.504-8.979 7.076-2.868 90.082-5.581 92.202 3.504 2.448 10.492-75.339 7.665-88.698 5.475z" fill="#E6E8F3"/><path d="M102.724 66.57h-15.55m-73.805 0h73.806m0 0v75.12" stroke="#8F94A9" stroke-width="1.913" stroke-linecap="round" stroke-linejoin="round"/><path d="M155.287 80.367c-2.848 11.608-7.447 19.711-13.141 22.339s-29.61 2.321-34.165 1.971c-5.694-.438-7.008-10.512-6.132-10.95.7-.35 33.07-2.044 37.669-5.257 4.599-3.212 7.227-16.206 9.636-25.623l.007-.027c2.407-9.41 5.035-19.683 10.287-18.808 5.256.876-1.314 24.748-4.161 36.355z" fill="#FF9E9F"/><path d="M149.373 143.66c-1.533-19.491-8.059-56.547-19.272-56.723-11.214-.175-23.434 35.261-27.376 57.599" stroke="#8C91A8" stroke-width="1.275"/><path d="M96.81 138.842c1.052-1.226.439-9.563 0-13.578l-6.789.219c.803 2.336 2.366 7.359 2.19 8.76-.219 1.752-6.35 2.847-7.665 3.066-1.314.219-1.97 2.19-1.533 2.19.438 0 12.483.876 13.798-.657zM118.931 131.177c-.526-1.051-4.307-5.548-6.132-7.665.949-1.752 2.978-5.125 3.504-4.6.657.657 5.256 6.79 6.57 7.885 1.314 1.095 2.847.876 3.066 2.628.219 1.752-2.628 3.285-2.628 4.599s-1.971 4.161-2.628 4.161-6.57.219-7.227-.438 1.314-2.19 3.285-2.19 2.847-3.066 2.19-4.38z" fill="#20294F"/><path d="M78.853 89.566c1.05-3.154 6.716-3.943 9.417-3.943 7.227 0 8.103 15.331 8.103 20.587s2.41 18.397 1.971 19.492c-.438 1.095-7.446 1.752-9.417 1.752s-.657-.876-.657-2.847-3.504-11.17-3.942-12.484c-.438-1.314-6.79-18.615-5.475-22.558z" fill="#1B2966"/><path d="M111.047 27.586c-1.027 2.845 23.215 34.603 26.281 16.645 3.066-17.96-12.264-18.616-14.673-22.996-2.41-4.38 1.507-9.484-2.19-13.36-3.698-3.876-10.075-5.037-16.426-.657-6.816 4.7 8.291 16.812 7.008 20.368z" fill="#222B54"/><path d="M103.146 26.343c2.431 1.396 4.472.715 5.188.2.949 1.134 2.464 4.242.937 7.608l-.025.054c-1.886 4.157-2.068 4.557 1.582 5.645 2.932.875 5.499-2.154 9.737-2.5.788-.053 1.762-.605-.647-2.391-3.011-2.234-2.914-6.544-3.951-8.076-1.037-1.532-3.145-2.009-4.693-3.703-1.548-1.694-.753-3.967-.155-4.13.598-.16 3.911.226 2.937-1.596-.975-1.822-1.847-.303-5.104-1.667-3.258-1.364-3.82-5.445-4.038-5.065-.218.38-4.305 6.843-4.333 7.332-.023.39.586 1.178.893 1.522-.455 1.675-.759 5.372 1.672 6.767z" fill="#F7B690"/><path fill-rule="evenodd" clip-rule="evenodd" d="M108.334 26.543c.764-.621 2.421-2.164 2.94-3.363.738.808 1.604 1.34 2.42 1.84.895.55 1.73 1.062 2.273 1.863.35.518.571 1.354.827 2.32.499 1.89 1.131 4.278 3.124 5.756 2.409 1.786 1.435 2.338.647 2.391-1.942.158-3.533.88-4.969 1.532-1.698.77-3.18 1.442-4.768.968-3.65-1.088-3.468-1.489-1.582-5.645l.025-.054c1.527-3.366.012-6.474-.937-7.608z" fill="#F4A086"/><path d="M97.246 64.38c.657-.439-2.19-1.315 3.286-1.534 5.475-.219-1.53-3.285-8.32-2.19-2.798.451-5.572 1.476-8.76 1.752-4.55.395-6.944-.232-8.98.876-2.036 1.108-3.504 2.628-2.409 2.628h11.605c1.577 0 12.921-1.095 13.578-1.533z" fill="#F4A086"/><path fill-rule="evenodd" clip-rule="evenodd" d="M142.146 85.185c1.168-.803 3.154-3.066 1.752-5.694-1.651-3.096-5.832-13.975-8.141-19.983l-.4-1.042c-2.19-5.694-4.599-12.045-4.599-12.921 0-.876-2.19-14.236-7.447-15.988-3.92-1.306-5.16-.786-5.991-.437-.284.12-.519.218-.798.218-.501 0-1.784.735-3.174 1.532-1.645.943-3.441 1.973-4.272 1.973-1.533 0-3.723 5.913-3.723 7.665 0 .25.022.721.052 1.355.18 3.82.637 13.755-1.804 16.384-1.574 1.695-8.09 1.175-8.98 2.19-.657.9-.525 4.82.876 5.598 2.377.288 5.11.76 7.208 1.122 1.677.289 2.947.508 3.305.508.412 0 .388 1.164.361 2.465-.031 1.463-.065 3.1.515 3.448 1.095.657 4.599 1.971 7.446 1.533 2.278-.35-1.825 4.818-4.161 7.446l31.975 2.628z" fill="#F1C312"/><path d="M132.509 80.148c5.432.35 8.979 2.92 10.075 4.161 3.4 2.41-1.095 11.826-7.009 11.826-5.913 0-20.805 2.41-27.157 2.19-6.351-.218-1.752 4.819-.657 6.571 1.095 1.752 11.389 12.483 11.608 13.578.219 1.095-5.695 7.666-6.79 7.009-1.095-.657-8.103-6.79-16.425-14.674-8.322-7.884-11.608-17.959-12.922-21.244s-1.752-7.008 2.19-7.884c3.943-.876 40.298-1.971 47.087-1.533z" fill="#38447A"/><path d="M126.158 72.702c5.958-3.329 5.841-17.01 5.038-23.434 1.752.876 2.409 4.6 2.409 5.037 0 .438-.657 14.455-4.818 19.273-4.162 4.818-13.141 2.847-13.36 2.847-.175 0-.657-.73-.876-1.095 1.387.511 5.65.7 11.607-2.628zM114.332 62.628c-2.19 1.752-8.833 3.212-7.884 1.752.949-1.46 5.913-3.285 7.227-7.009 1.051-2.978 4.234-7.54 4.817-7.291.583.25-2.006 10.824-4.16 12.548z" fill="#DBB110"/><path d="M73.597 65.519c-19.594 0-19.594-.594-20.782-9.5-1.187-8.907-5.937-49.282-5.937-49.282" stroke="#E7E8EB" stroke-width="1.275" stroke-linecap="round" stroke-linejoin="round"/><path d="M58.923 56.018c-.886.563-4.337.215-5.622.062a.625.625 0 01-.545-.549L46.965 8.045c-.047-.38.251-.705.625-.623.797.173 1.902.618 2.354 1.548.62 1.277 10.074 46.352 8.98 47.048z" fill="#F0F1FA"/><path d="M106.886 72.264l-.438-7.008c-5.475-.876-15.55-3.066-18.397-3.285-2.847-.22-6.57.438-8.322 1.533-1.752 1.095-2.41 2.628-1.314 2.628h15.111c1.577 0 9.564 4.088 13.36 6.132z" fill="#F7B690"/><path d="M16.369 66.57h15.55m73.805 0H31.918m0 0v75.12" stroke="#8F94A9" stroke-width="1.913" stroke-linecap="round" stroke-linejoin="round"/><path d="M50.095 47.108c1.62 1.933-2.221 7.185-9.537 9.014-1.524 3.483-2.613.784-.392-1.83 3.345-9.823 8.309-9.118 9.929-7.184z" fill="#FED547"/><path d="M40.558 56.122c.167-.042.332-.086.495-.13.196-.255.412-.524.648-.802 3.345-9.824 6.774-10.016 8.393-8.082 1.584 1.889-2.048 6.947-9.041 8.883-1.645 2.136-1.857 3.244-.495.13z" fill="#EEB900"/><path d="M42.116 42.358c2.195 4.703-1.263 11.54-3.266 14.37-.697-1.437-2.64-5.121-4.834-8.36-2.743-4.05-1.829-6.663-.653-7.578 1.176-.914 6.01-4.311 8.753 1.568z" fill="#43C59E"/><path d="M42.115 42.358c2.195 4.703-1.263 11.54-3.266 14.37-.696-1.437 3.295-8.81 1.1-12.05-2.743-4.05-7.762-2.973-6.587-3.888 1.176-.914 6.01-4.311 8.753 1.568z" fill="#35B08B"/><path d="M35.9 49.23c3.03 2.403 2.656 6.14 2.09 7.707a550.455 550.455 0 01-5.096-2.613c-3.788-1.96-3.527-5.095-3.396-5.748.13-.653 2.613-2.351 6.401.653z" fill="#212A53"/><path d="M35.9 49.23c3.03 2.403 2.656 6.14 2.09 7.707-.436-.218-.047-3.464-3.078-5.032-3.788-1.96-5.545-2.676-5.414-3.329.13-.653 2.613-2.351 6.401.653z" fill="#0E1430"/><path d="M33.698 55.553c4.67-1.515 8.363-.631 9.626 0-.09 9.273.787 10.368-4.813 10.415-5.6.046-5.132-3.113-4.813-10.415z" fill="#FF9E9F"/><path d="M38.274 56.342c2.399 0 4.366-.526 5.05-.79-1.263-.63-4.955-1.514-9.626 0 .526.264 2.177.79 4.576.79z" fill="#20294F"/></svg>