<svg xmlns="http://www.w3.org/2000/svg" viewBox="0 0 512 512"><defs/><path fill="#ced6e0" d="M441.6 388.9H70.4L0 465.7h512z"/><path fill="#adb3ba" d="M193.1 443.3l26.6-29.9h72.6l26.6 29.9z"/><path fill="#415a6b" d="M441.6 146.7V390H70.4V146.7c0-11.7 9.6-21.3 21.3-21.3h329.6c10.7 0 20.3 9.6 20.3 21.3z"/><path fill="#8ad7f8" d="M97.1 152.1H415v210.1H97.1z"/><path fill="#415a6b" d="M512 465.7c0 18.1-15 33-33 33H33c-9.5 0-17-3.2-23.4-9.6A33.8 33.8 0 010 465.7h512z"/><g fill="#ced6e0"><path d="M329.6 125.4h-7.5c0-47-29.8-86.4-67.2-86.4s-67.2 38.4-67.2 86.4h-7.4c2.1-51.2 35.2-92.8 75.7-92.8s73.6 41.6 73.6 92.8zM274.1 350.5l13.9-85.4h-64l13.9 85.4z"/></g><g fill="#415a6b"><path d="M267.7 297.1l9.6-9.6-21.3-22.4-21.3 22.4 9.6 9.6zM281.6 362.2l-13.9-65.1h-23.4l-13.9 65.1z"/></g><path fill="#f7b64c" d="M212.3 161.7h87.5v103.5h-87.5z"/><g fill="#f3f3f3"><path d="M299.7 206.5L256 265s29.9 27.8 32 33.1l32-66.1-20.3-25.6zM212.3 206.5l43.7 59.7s-29.9 27.7-32 33l-32-66 20.3-26.7z"/></g><path fill="#f05540" d="M415 362.2l-11.8-68.3a43 43 0 00-24.5-30.9l-53.4-25.6-40.5 124.8h130.1z"/><path fill="#f3705a" d="M298.7 362.2l40.5-88.5-18.1-11.8 29.8-11.7-51.2-43.7L272 362.2z"/><path fill="#f05540" d="M228.3 362.2l-40.6-124.8-53.3 25.6a45 45 0 00-24.5 31L98 362.1h130.2z"/><path fill="#f3705a" d="M172.8 273.7l39.5 88.5H240l-27.7-155.7-51.2 43.7 29.8 11.7z"/><ellipse cx="256" cy="131.8" fill="#ffd15c" rx="59.7" ry="91.7"/><g fill="#415a6b"><path d="M287 187.3l-2.2-4.3c28.8-15 37.3-41.6 37.3-41.6l4.3 1c0 1.1-8.5 28.9-39.5 44.9z"/><path d="M293.3 180.9c2.2 3.2 1.1 7.4-5.3 10.6-7.5 3.2-10.7 1.1-12.8-2.1-2.1-3.2-2.1-7.5 5.3-11.7 7.5-3.2 10.7-1.1 12.8 3.2zM195.2 134h6.4c0-8.6-1-21.4-1-23.5 0-3.2 9.5-5.4 9.5-16 0-4.3 0-9.6 1.1-15 1-5.3 6.4-9.6 11.7-8.5 17.1 2.1 57.6-3.2 73.6 3.2 11.8 4.3 0 16 5.4 21.3s6.4 2.2 6.4 6.4c0 3.2 1 31 1 37.4h3.2c2.2-7.5 5.4-28.8 10.7-48 7.5-26.7 1-45.9-21.3-63s-53.4-18.1-73.6-10.6c-19.2 7.4-26.7 16-24.6 29.8 0 0-9.6-1-19.2 16-9.6 18.2 9.6 54.4 9.6 58.7 0 3.2 1.1 7.5 1.1 11.7z"/></g><path fill="#f05540" d="M335 127.5v9.6c0 2.2-2.2 4.3-4.3 4.3a4.6 4.6 0 00-4.3 4.3c-1 8.5-3.2 13.8-7.5 13.8-5.3 0-9.6-10.6-10.6-24.5-1.1-13.9 2.1-24.5 7.4-24.5 2.2 0 5.4 3.2 6.4 7.4a8 8 0 007.5 5.4c3.2 0 5.3 2.1 5.3 4.2z"/><path fill="#f3705a" d="M326.4 148.9c-1 6.4-3.2 10.6-6.4 10.6-5.3 0-9.6-10.6-10.7-24.5s2.2-24.5 7.5-24.5c2.1 0 4.3 2.1 6.4 6.4-7.5 0-3.2 33 3.2 32z"/><path fill="#f05540" d="M177 127.5v9.6c0 2.2 2.2 4.3 4.3 4.3 2.2 0 4.3 2.1 4.3 4.3 1 8.5 3.2 13.8 7.5 13.8 5.3 0 9.6-10.6 10.6-24.5 1.1-13.9-2.1-24.5-7.4-24.5-2.2 0-5.4 3.2-6.4 7.4a8 8 0 01-7.5 5.4c-3.2 0-5.3 2.1-5.3 4.2z"/><path fill="#f3705a" d="M185.6 148.9c1 6.4 3.2 10.6 6.4 10.6 5.3 0 9.6-10.6 10.7-24.5s-2.2-24.5-7.5-24.5c-2.1 0-4.3 2.1-6.4 6.4 7.5 0 3.2 33-3.2 32z"/></svg>